<svg width="24" height="24" viewBox="0 0 24 24" fill="currentColor" xmlns="http://www.w3.org/2000/svg">
<path d="M20.9353 7.25378L16.7466 3.06409C16.6073 2.92477 16.4419 2.81425 16.2599 2.73885C16.0779 2.66344 15.8828 2.62463 15.6858 2.62463C15.4888 2.62463 15.2937 2.66344 15.1117 2.73885C14.9297 2.81425 14.7643 2.92477 14.625 3.06409L3.06469 14.6253C2.9248 14.7641 2.81389 14.9293 2.73841 15.1114C2.66292 15.2934 2.62438 15.4886 2.62501 15.6857V19.8753C2.62501 20.2732 2.78304 20.6547 3.06435 20.936C3.34565 21.2173 3.72718 21.3753 4.12501 21.3753H8.3147C8.51175 21.376 8.70697 21.3374 8.88899 21.2619C9.07102 21.1865 9.23622 21.0756 9.37501 20.9357L20.9353 9.37534C21.0746 9.23605 21.1852 9.07068 21.2606 8.88867C21.336 8.70666 21.3748 8.51157 21.3748 8.31456C21.3748 8.11755 21.336 7.92247 21.2606 7.74046C21.1852 7.55845 21.0746 7.39307 20.9353 7.25378ZM4.43532 15.3753L12.375 7.43566L13.9397 9.00034L6.00001 16.9391L4.43532 15.3753ZM4.12501 17.1857L6.8147 19.8753H4.12501V17.1857ZM8.62501 19.565L7.06032 18.0003L15 10.0607L16.5647 11.6253L8.62501 19.565ZM17.625 10.565L13.4353 6.37534L15.6853 4.12534L19.875 8.31409L17.625 10.565Z" fill="#6B85A6"/>
</svg>
