<svg width="24" height="24" viewBox="0 0 24 24" fill="currentColor" xmlns="http://www.w3.org/2000/svg">
<path d="M21.3114 10.4993L16.2983 15.5293C16.7258 16.7172 16.903 18.7067 15.0616 21.1547C14.9328 21.3268 14.7684 21.4691 14.5796 21.5718C14.3908 21.6746 14.182 21.7354 13.9675 21.75C13.9319 21.75 13.8972 21.75 13.8616 21.75C13.6644 21.75 13.4692 21.7112 13.2871 21.6358C13.105 21.5603 12.9396 21.4497 12.8002 21.3103L8.2756 16.781L4.2788 20.7806C4.13806 20.9213 3.94718 21.0004 3.74814 21.0004C3.54911 21.0004 3.35823 20.9213 3.21749 20.7806C3.07675 20.6398 2.99768 20.4489 2.99768 20.2499C2.99768 20.0509 3.07675 19.86 3.21749 19.7193L7.2171 15.7225L2.68871 11.1941C2.53986 11.045 2.42407 10.8663 2.34886 10.6696C2.27366 10.4728 2.24074 10.2624 2.25224 10.0521C2.26373 9.84179 2.3194 9.63625 2.4156 9.44887C2.5118 9.26149 2.64638 9.09647 2.81059 8.96455C5.19385 7.04162 7.47493 7.41946 8.47343 7.7326L13.4987 2.68949C13.638 2.55015 13.8034 2.43963 13.9854 2.36422C14.1675 2.28881 14.3625 2.25 14.5596 2.25C14.7566 2.25 14.9517 2.28881 15.1337 2.36422C15.3157 2.43963 15.4811 2.55015 15.6204 2.68949L21.3104 8.37858C21.5917 8.65975 21.7498 9.04108 21.7499 9.43876C21.7501 9.83644 21.5924 10.2179 21.3114 10.4993Z" fill="#6B85A6"/>
</svg>
