<svg width="24" height="24" viewBox="0 0 24 24" fill="currentColor" xmlns="http://www.w3.org/2000/svg">
<path d="M21.3106 8.37821L15.6209 2.68946C15.4816 2.55014 15.3163 2.43962 15.1343 2.36421C14.9522 2.28881 14.7572 2.25 14.5602 2.25C14.3631 2.25 14.1681 2.28881 13.986 2.36421C13.804 2.43962 13.6387 2.55014 13.4994 2.68946L8.47156 7.73321C7.47218 7.42009 5.19031 7.04227 2.80906 8.96509C2.64492 9.09707 2.51043 9.26213 2.41431 9.44954C2.3182 9.63694 2.26263 9.84249 2.25123 10.0528C2.23982 10.2631 2.27282 10.4734 2.3481 10.6702C2.42337 10.8669 2.53923 11.0455 2.68812 11.1945L7.21812 15.7226L3.21875 19.7192C3.07801 19.8599 2.99895 20.0508 2.99895 20.2498C2.99895 20.4488 3.07801 20.6397 3.21875 20.7804C3.35948 20.9211 3.55035 21.0002 3.74937 21.0002C3.94839 21.0002 4.13926 20.9211 4.27999 20.7804L8.27656 16.781L12.8037 21.3082C12.9429 21.448 13.1083 21.5589 13.2904 21.6347C13.4725 21.7104 13.6678 21.7496 13.865 21.7498C13.9006 21.7498 13.9353 21.7498 13.9709 21.7498C14.1848 21.735 14.3929 21.6743 14.5812 21.5719C14.7695 21.4695 14.9335 21.3278 15.0622 21.1563C16.9034 18.7095 16.7262 16.7201 16.2987 15.5313L21.3116 10.4998C21.4508 10.3604 21.5613 10.195 21.6366 10.013C21.7119 9.83091 21.7506 9.63581 21.7505 9.4388C21.7505 9.24179 21.7116 9.04672 21.6361 8.86474C21.5606 8.68277 21.45 8.51744 21.3106 8.37821ZM20.2494 9.43946L14.8803 14.8263C14.7694 14.9376 14.6963 15.0809 14.6712 15.236C14.6462 15.3911 14.6704 15.5502 14.7406 15.6907C15.6275 17.4654 14.5719 19.3085 13.865 20.2488L3.74937 10.1323C4.88187 9.21915 5.96562 8.97821 6.79437 8.97821C7.32024 8.97103 7.84177 9.07419 8.32531 9.28102C8.46638 9.35162 8.62611 9.37595 8.7818 9.35053C8.93749 9.32512 9.0812 9.25126 9.1925 9.13946L14.5606 3.74977L20.2494 9.43852V9.43946Z" fill="#6B85A6"/>
</svg>
