<svg width="24" height="24" viewBox="0 0 24 24" fill="currentColor" xmlns="http://www.w3.org/2000/svg">
<path d="M21 4.50068V9.00068C21 9.19959 20.921 9.39036 20.7803 9.53101C20.6397 9.67166 20.4489 9.75068 20.25 9.75068H15.75C15.5511 9.75068 15.3603 9.67166 15.2197 9.53101C15.079 9.39036 15 9.19959 15 9.00068C15 8.80177 15.079 8.611 15.2197 8.47035C15.3603 8.3297 15.5511 8.25068 15.75 8.25068H18.4397L17.0681 6.87912C15.6742 5.47887 13.7817 4.68889 11.8059 4.68255H11.7638C9.80454 4.67796 7.92227 5.44481 6.52406 6.81724C6.38083 6.95095 6.19096 7.02329 5.99507 7.0188C5.79918 7.01431 5.61283 6.93333 5.47588 6.7932C5.33893 6.65306 5.26226 6.4649 5.26227 6.26896C5.26228 6.07302 5.33897 5.88486 5.47594 5.74474C7.1705 4.08855 9.44983 3.16744 11.8193 3.18131C14.1887 3.19517 16.4571 4.1429 18.1322 5.8188L19.5 7.19037V4.50068C19.5 4.30177 19.579 4.111 19.7197 3.97035C19.8603 3.8297 20.0511 3.75068 20.25 3.75068C20.4489 3.75068 20.6397 3.8297 20.7803 3.97035C20.921 4.111 21 4.30177 21 4.50068ZM17.4759 17.1841C16.0639 18.5634 14.1651 19.3304 12.1912 19.3188C10.2173 19.3073 8.32762 18.518 6.93188 17.1222L5.56031 15.7507H8.25C8.44891 15.7507 8.63968 15.6717 8.78033 15.531C8.92098 15.3904 9 15.1996 9 15.0007C9 14.8018 8.92098 14.611 8.78033 14.4703C8.63968 14.3297 8.44891 14.2507 8.25 14.2507H3.75C3.55109 14.2507 3.36032 14.3297 3.21967 14.4703C3.07902 14.611 3 14.8018 3 15.0007V19.5007C3 19.6996 3.07902 19.8904 3.21967 20.031C3.36032 20.1717 3.55109 20.2507 3.75 20.2507C3.94891 20.2507 4.13968 20.1717 4.28033 20.031C4.42098 19.8904 4.5 19.6996 4.5 19.5007V16.811L5.87156 18.1826C7.54426 19.8637 9.816 20.8119 12.1875 20.8188H12.2372C14.5885 20.8249 16.8476 19.9043 18.525 18.2566C18.662 18.1165 18.7387 17.9283 18.7387 17.7324C18.7387 17.5365 18.662 17.3483 18.5251 17.2082C18.3881 17.068 18.2018 16.9871 18.0059 16.9826C17.81 16.9781 17.6201 17.0504 17.4769 17.1841H17.4759Z" fill="#6B85A6"/>
</svg>
