<svg width="24" height="24" viewBox="0 0 24 24" fill="currentColor" xmlns="http://www.w3.org/2000/svg">
<path d="M21.5406 20.4795L16.8465 15.7864C18.2071 14.153 18.8855 12.0579 18.7407 9.93704C18.5959 7.81617 17.639 5.83278 16.0691 4.39945C14.4992 2.96612 12.4371 2.19321 10.3119 2.24151C8.18664 2.28981 6.16182 3.1556 4.65865 4.65877C3.15548 6.16194 2.28969 8.18676 2.24139 10.312C2.19309 12.4373 2.966 14.4993 4.39933 16.0692C5.83266 17.6391 7.81605 18.596 9.93692 18.7408C12.0578 18.8856 14.1528 18.2072 15.7862 16.8467L20.4794 21.5407C20.549 21.6104 20.6318 21.6657 20.7228 21.7034C20.8139 21.7411 20.9114 21.7605 21.01 21.7605C21.1085 21.7605 21.2061 21.7411 21.2972 21.7034C21.3882 21.6657 21.4709 21.6104 21.5406 21.5407C21.6103 21.471 21.6656 21.3883 21.7033 21.2973C21.741 21.2062 21.7604 21.1087 21.7604 21.0101C21.7604 20.9116 21.741 20.814 21.7033 20.7229C21.6656 20.6319 21.6103 20.5492 21.5406 20.4795ZM3.75998 10.5101C3.75998 9.17508 4.15586 7.87003 4.89756 6.76C5.63926 5.64997 6.69347 4.78481 7.92687 4.27392C9.16027 3.76302 10.5175 3.62935 11.8268 3.8898C13.1362 4.15025 14.3389 4.79313 15.283 5.73713C16.227 6.68114 16.8698 7.88387 17.1303 9.19324C17.3907 10.5026 17.2571 11.8598 16.7462 13.0932C16.2353 14.3266 15.3701 15.3808 14.2601 16.1225C13.15 16.8642 11.845 17.2601 10.51 17.2601C8.72038 17.2581 7.00464 16.5463 5.7392 15.2809C4.47376 14.0154 3.76196 12.2997 3.75998 10.5101Z" fill="#6B85A6"/>
</svg>
