<svg width="24" height="24" viewBox="0 0 24 24" fill="currentColor" xmlns="http://www.w3.org/2000/svg">
<path d="M11.031 15.9694C11.1008 16.039 11.1561 16.1217 11.1938 16.2128C11.2316 16.3038 11.251 16.4014 11.251 16.5C11.251 16.5985 11.2316 16.6961 11.1938 16.7872C11.1561 16.8782 11.1008 16.9609 11.031 17.0306L8.03104 20.0306C7.96139 20.1003 7.87867 20.1557 7.78762 20.1934C7.69657 20.2311 7.59898 20.2506 7.50042 20.2506C7.40186 20.2506 7.30426 20.2311 7.21321 20.1934C7.12216 20.1557 7.03945 20.1003 6.96979 20.0306L3.96979 17.0306C3.90011 16.9609 3.84483 16.8782 3.80712 16.7872C3.76941 16.6961 3.75 16.5985 3.75 16.5C3.75 16.4014 3.76941 16.3039 3.80712 16.2128C3.84483 16.1218 3.90011 16.039 3.96979 15.9694C4.11052 15.8286 4.30139 15.7496 4.50042 15.7496C4.59896 15.7496 4.69654 15.769 4.78759 15.8067C4.87863 15.8444 4.96136 15.8997 5.03104 15.9694L6.75042 17.6897V4.49998C6.75042 4.30107 6.82943 4.1103 6.97009 3.96965C7.11074 3.829 7.3015 3.74998 7.50042 3.74998C7.69933 3.74998 7.89009 3.829 8.03075 3.96965C8.1714 4.1103 8.25042 4.30107 8.25042 4.49998V17.6897L9.96979 15.9694C10.0394 15.8996 10.1222 15.8443 10.2132 15.8066C10.3043 15.7688 10.4019 15.7494 10.5004 15.7494C10.599 15.7494 10.6966 15.7688 10.7876 15.8066C10.8787 15.8443 10.9614 15.8996 11.031 15.9694ZM20.031 6.96935L17.031 3.96935C16.9614 3.89962 16.8787 3.8443 16.7876 3.80656C16.6966 3.76882 16.599 3.74939 16.5004 3.74939C16.4019 3.74939 16.3043 3.76882 16.2132 3.80656C16.1222 3.8443 16.0394 3.89962 15.9698 3.96935L12.9698 6.96935C12.8291 7.11009 12.75 7.30096 12.75 7.49998C12.75 7.699 12.8291 7.88987 12.9698 8.03061C13.1105 8.17134 13.3014 8.2504 13.5004 8.2504C13.6994 8.2504 13.8903 8.17134 14.031 8.03061L15.7504 6.31029V19.5C15.7504 19.6989 15.8294 19.8897 15.9701 20.0303C16.1107 20.171 16.3015 20.25 16.5004 20.25C16.6993 20.25 16.8901 20.171 17.0307 20.0303C17.1714 19.8897 17.2504 19.6989 17.2504 19.5V6.31029L18.9698 8.03061C19.1105 8.17134 19.3014 8.2504 19.5004 8.2504C19.6994 8.2504 19.8903 8.17134 20.031 8.03061C20.1718 7.88987 20.2508 7.699 20.2508 7.49998C20.2508 7.30096 20.1718 7.11009 20.031 6.96935Z" fill="#6B85A6"/>
</svg>
