<svg width="24" height="24" viewBox="0 0 24 24" fill="currentColor" xmlns="http://www.w3.org/2000/svg">
<path d="M4.68 3.24793C4.61414 3.17368 4.53419 3.11325 4.4448 3.07013C4.35541 3.02701 4.25835 3.00206 4.15924 2.99673C4.06014 2.9914 3.96096 3.00579 3.86746 3.03907C3.77396 3.07235 3.68799 3.12386 3.61454 3.19061C3.54109 3.25736 3.48162 3.33802 3.43958 3.42792C3.39753 3.51783 3.37375 3.61518 3.36961 3.71434C3.36546 3.8135 3.38104 3.9125 3.41544 4.0056C3.44984 4.09869 3.50238 4.18403 3.57 4.25668L6.52031 7.5023H2.625C2.22718 7.5023 1.84564 7.66034 1.56434 7.94164C1.28304 8.22295 1.125 8.60448 1.125 9.0023V15.0023C1.125 15.4001 1.28304 15.7817 1.56434 16.063C1.84564 16.3443 2.22718 16.5023 2.625 16.5023H6.86719L13.4147 21.5939C13.5255 21.68 13.6582 21.7333 13.7978 21.7478C13.9374 21.7622 14.0783 21.7372 14.2043 21.6756C14.3304 21.6139 14.4367 21.5182 14.5111 21.3992C14.5854 21.2801 14.6249 21.1426 14.625 21.0023V16.417L18.57 20.7567C18.6359 20.8309 18.7158 20.8914 18.8052 20.9345C18.8946 20.9776 18.9917 21.0025 19.0908 21.0079C19.1899 21.0132 19.289 20.9988 19.3825 20.9655C19.476 20.9323 19.562 20.8807 19.6355 20.814C19.7089 20.7472 19.7684 20.6666 19.8104 20.5767C19.8525 20.4868 19.8763 20.3894 19.8804 20.2903C19.8845 20.1911 19.869 20.0921 19.8346 19.999C19.8002 19.9059 19.7476 19.8206 19.68 19.7479L4.68 3.24793ZM2.625 9.0023H6.375V15.0023H2.625V9.0023ZM13.125 19.4686L7.875 15.3857V8.99199L13.125 14.767V19.4686ZM17.0625 13.4901C17.4242 13.0793 17.6238 12.5506 17.6238 12.0032C17.6238 11.4558 17.4242 10.9272 17.0625 10.5164C16.9936 10.4431 16.9401 10.3568 16.9053 10.2624C16.8704 10.1681 16.8549 10.0678 16.8596 9.9673C16.8643 9.86685 16.8892 9.76837 16.9327 9.67773C16.9762 9.58708 17.0376 9.50611 17.113 9.43964C17.1885 9.37318 17.2765 9.32256 17.372 9.29081C17.4674 9.25906 17.5682 9.24682 17.6684 9.25483C17.7687 9.26283 17.8663 9.29091 17.9555 9.3374C18.0446 9.38388 18.1235 9.44783 18.1875 9.52543C18.7907 10.2102 19.1236 11.0916 19.1236 12.0042C19.1236 12.9168 18.7907 13.7981 18.1875 14.4829C18.1223 14.5568 18.0432 14.6171 17.9547 14.6604C17.8662 14.7037 17.7701 14.7291 17.6717 14.7353C17.5734 14.7414 17.4748 14.7281 17.3816 14.6962C17.2884 14.6642 17.2025 14.6142 17.1286 14.549C17.0547 14.4838 16.9944 14.4047 16.9511 14.3162C16.9078 14.2277 16.8824 14.1316 16.8762 14.0333C16.8701 13.9349 16.8834 13.8364 16.9154 13.7432C16.9473 13.65 16.9973 13.564 17.0625 13.4901ZM9.5475 6.36512C9.48696 6.28738 9.44234 6.19848 9.41617 6.10349C9.39 6.0085 9.3828 5.90929 9.39499 5.81152C9.40718 5.71374 9.43852 5.61933 9.4872 5.53368C9.53589 5.44802 9.60098 5.3728 9.67875 5.3123L13.4147 2.40605C13.5258 2.31967 13.659 2.2663 13.799 2.25203C13.939 2.23777 14.0802 2.26318 14.2065 2.32538C14.3327 2.38758 14.4389 2.48404 14.5129 2.60375C14.5869 2.72345 14.6258 2.86157 14.625 3.0023V10.0176C14.625 10.2165 14.546 10.4073 14.4053 10.5479C14.2647 10.6886 14.0739 10.7676 13.875 10.7676C13.6761 10.7676 13.4853 10.6886 13.3447 10.5479C13.204 10.4073 13.125 10.2165 13.125 10.0176V4.53605L10.5994 6.5048C10.4419 6.62626 10.2425 6.68017 10.0453 6.65467C9.84802 6.62918 9.66897 6.52637 9.5475 6.36887V6.36512ZM22.875 12.0023C22.8761 13.8475 22.1961 15.6282 20.9653 17.0029C20.8317 17.1475 20.6466 17.2337 20.45 17.243C20.2534 17.2524 20.061 17.184 19.9143 17.0527C19.7676 16.9214 19.6785 16.7377 19.666 16.5413C19.6536 16.3448 19.7189 16.1514 19.8478 16.0026C20.8316 14.9026 21.3755 13.4786 21.3755 12.0028C21.3755 10.527 20.8316 9.10295 19.8478 8.00293C19.7803 7.92986 19.728 7.84408 19.6939 7.7506C19.6599 7.65711 19.6447 7.55779 19.6495 7.4584C19.6542 7.35902 19.6786 7.26157 19.7213 7.17172C19.7641 7.08187 19.8243 7.00143 19.8984 6.93507C19.9725 6.86871 20.0591 6.81776 20.1531 6.7852C20.2472 6.75263 20.3467 6.7391 20.446 6.74539C20.5453 6.75167 20.6423 6.77765 20.7315 6.82182C20.8207 6.86598 20.9001 6.92744 20.9653 7.00261C22.1964 8.37682 22.8765 10.1573 22.875 12.0023Z" fill="#6B85A6"/>
</svg>
