<svg width="24" height="24" viewBox="0 0 24 24" fill="currentColor" xmlns="http://www.w3.org/2000/svg">
<path d="M18.3291 2.32615C18.2029 2.26469 18.0621 2.23985 17.9226 2.25443C17.783 2.26901 17.6504 2.32244 17.5397 2.40865L10.9922 7.50021H6.75C6.35218 7.50021 5.97064 7.65825 5.68934 7.93955C5.40804 8.22086 5.25 8.60239 5.25 9.00021V15.0002C5.25 15.398 5.40804 15.7796 5.68934 16.0609C5.97064 16.3422 6.35218 16.5002 6.75 16.5002H10.9922L17.5397 21.5918C17.6505 21.6779 17.7832 21.7312 17.9228 21.7457C18.0624 21.7601 18.2033 21.7351 18.3293 21.6735C18.4554 21.6118 18.5617 21.5161 18.6361 21.3971C18.7104 21.278 18.7499 21.1406 18.75 21.0002V3.00021C18.75 2.85971 18.7106 2.72202 18.6361 2.60285C18.5617 2.48367 18.4553 2.3878 18.3291 2.32615ZM6.75 9.00021H10.5V15.0002H6.75V9.00021ZM17.25 19.4665L12 15.3837V8.61678L17.25 4.53396V19.4665Z" fill="#6B85A6"/>
</svg>
